<svg xmlns="http://www.w3.org/2000/svg" xmlns:xlink="http://www.w3.org/1999/xlink" id="Capa_1" x="0px" y="0px" width="856.347px" height="157.365px" viewBox="-1035.302 -23.365 856.347 157.365" xml:space="preserve"><g>	<path fill="#BF2226" d="M-866.519,100.459c-7.813-4.355-14.019-10.441-18.61-18.256c-4.597-7.813-6.892-16.597-6.892-26.354  c0-9.755,2.295-18.516,6.892-26.284c4.593-7.765,10.797-13.828,18.61-18.185c7.814-4.357,16.409-6.535,25.787-6.535  c9.376,0,17.972,2.178,25.786,6.535s13.97,10.42,18.47,18.185c4.498,7.768,6.749,16.529,6.749,26.284  c0,9.757-2.272,18.541-6.819,26.354c-4.547,7.815-10.704,13.901-18.47,18.256c-7.768,4.359-16.339,6.537-25.715,6.537  C-850.11,106.996-858.705,104.818-866.519,100.459z M-821.624,76.875c4.78-5.303,7.174-12.312,7.174-21.026  c0-8.811-2.394-15.84-7.174-21.098c-4.784-5.256-11.153-7.885-19.109-7.885c-8.052,0-14.47,2.607-19.251,7.814  c-4.784,5.209-7.175,12.267-7.175,21.168c0,8.81,2.391,15.84,7.175,21.097c4.782,5.257,11.199,7.885,19.251,7.885  C-832.776,84.831-826.407,82.182-821.624,76.875z"></path>	<path fill="#BF2226" d="M-754.85,100.459c-7.813-4.355-14.018-10.441-18.61-18.256c-4.597-7.813-6.892-16.597-6.892-26.354  c0-9.755,2.295-18.516,6.892-26.284c4.593-7.765,10.797-13.828,18.61-18.185c7.814-4.357,16.41-6.535,25.787-6.535  c9.376,0,17.973,2.178,25.786,6.535c7.814,4.357,13.97,10.42,18.47,18.185c4.498,7.768,6.749,16.529,6.749,26.284  c0,9.757-2.272,18.541-6.819,26.354c-4.546,7.815-10.704,13.901-18.47,18.256c-7.768,4.359-16.339,6.537-25.715,6.537  C-738.44,106.996-747.036,104.818-754.85,100.459z M-709.954,76.875c4.781-5.303,7.174-12.312,7.174-21.026  c0-8.811-2.393-15.84-7.174-21.098c-4.784-5.256-11.153-7.885-19.109-7.885c-8.052,0-14.47,2.607-19.252,7.814  c-4.784,5.209-7.174,12.267-7.174,21.168c0,8.81,2.391,15.84,7.174,21.097c4.782,5.257,11.2,7.885,19.252,7.885  C-721.107,84.831-714.738,82.182-709.954,76.875z"></path>	<path fill="#BF2226" d="M-640.268,87.247h31.825v18.754h-56.119V6.266h24.294V87.247z"></path>	<path fill="#BF2226" d="M-572.5,6.266v99.735h-24.294V6.266H-572.5z"></path>	<path fill="#BF2226" d="M-465.66,106.001h-24.295l-40.633-61.519v61.519h-24.294V6.266h24.294l40.633,61.801V6.266h24.295V106.001z  "></path>	<path fill="#BF2226" d="M-385.957,88.383h-37.225l-5.967,17.618h-25.432l36.087-99.735h28.131l36.086,99.735h-25.715  L-385.957,88.383z M-392.209,69.63l-12.36-36.514l-12.217,36.514H-392.209z"></path>	<path fill="#BF2226" d="M-292.472,106.001l-20.742-37.651h-5.826v37.651h-24.294V6.266h40.774c7.861,0,14.563,1.374,20.104,4.12  c5.541,2.748,9.684,6.512,12.431,11.294c2.747,4.784,4.121,10.111,4.121,15.983c0,6.631-1.872,12.551-5.612,17.759  c-3.742,5.21-9.259,8.904-16.552,11.082l23.018,39.498L-292.472,106.001L-292.472,106.001z M-319.041,51.16h15.06  c4.451,0,7.79-1.088,10.017-3.267c2.225-2.179,3.338-5.257,3.338-9.237c0-3.785-1.113-6.771-3.338-8.95  c-2.228-2.176-5.565-3.268-10.017-3.268h-15.06V51.16z"></path>	<path fill="#BF2226" d="M-178.956,6.266v19.463h-26.426v80.272h-24.295V25.729h-26.427V6.266H-178.956z"></path>	<path fill="#BF2226" d="M-911.498-4.146c0.09-0.709,0.142-1.431,0.142-2.165s-0.052-1.455-0.142-2.165  c-1.064-8.395-8.228-14.889-16.912-14.889h-106.893V134h106.893c8.685,0,15.848-6.494,16.912-14.89  c0.09-0.709,0.142-1.431,0.142-2.164c0-0.734-0.052-1.456-0.142-2.165V-4.146L-911.498-4.146z M-959.198,105.417l-33.688-44.248  v44.248h-24.406V5.218h24.406V49.18l33.4-43.962h28.69l-38.824,49.1l40.252,51.1L-959.198,105.417L-959.198,105.417z"></path></g></svg>